<svg viewBox="0 0 24 24" xmlns="http://www.w3.org/2000/svg"><g stroke-width="1.5" fill="none" stroke="#000"><path d="M3 10v9c0 1.1.89 2 2 2h14c1.1 0 2-.9 2-2v-9"/><path d="M14.83 21v-6c0-1.11-.9-2-2-2h-2c-1.11 0-2 .89-2 2v6"/><path d="M21.81 9.36l-1.7-5.93c-.08-.26-.31-.44-.58-.44h-4.05l.47 5.7c.01.18.11.35.27.45 .38.23 1.15.66 1.74.84 1.01.31 2.5.19 3.34.09 .35-.05.56-.4.47-.74Z"/><path d="M14 10c.56-.18 1.28-.58 1.69-.82 .19-.12.29-.33.27-.55l-.47-5.64h-7l-.47 5.63c-.02.22.08.43.27.54 .4.23 1.12.63 1.69.81 1.49.45 2.5.45 4 0Z"/><path d="M3.87 3.43l-1.7 5.92c-.1.34.12.68.47.73 .84.1 2.33.21 3.34-.1 .59-.19 1.35-.62 1.74-.85 .16-.1.26-.27.27-.46l.47-5.71H4.41c-.27 0-.51.17-.58.43Z"/></g></svg>